<svg xmlns="http://www.w3.org/2000/svg">
    <symbol id="colorVersion" viewBox="0 0 24 24">
        <path style="fill:#FFFFFF" d="M0,3.2L12,24L24,3.2H0z"/>
        <polygon style="fill:#FAC832" points="20.5,7.1 18.6,4.1 22.2,4.1 17.2,12.7 15.4,9.8 16.9,7.1 	"/>
        <polygon style="fill:#FAC832" points="13.7,18.8 17.2,12.7 10.2,12.7 	"/>
        <polygon style="fill:#FAC832" points="7,7.1 8.5,9.7 12,9.8 10.5,7.1 	"/>
        <polygon style="fill:#383838" points="17.2,12.7 15.4,9.8 12,9.8 13.7,12.7 	"/>
        <polygon style="fill:#D0A933" points="10.2,12.7 13.7,12.7 12,9.8 8.5,9.7 	"/>
        <polygon style="fill:#383838" points="20.5,7.1 18.6,4.1 1.8,4.1 12,21.8 13.7,18.8 7,7.1 	"/>
    </symbol>
</svg>
